<?xml version="1.0" encoding="UTF-8"?>
<svg id="Capa_2" data-name="Capa 2" xmlns="http://www.w3.org/2000/svg" xmlns:xlink="http://www.w3.org/1999/xlink" viewBox="0 0 1415.51 500">
  <defs>
    <style>
      .cls-1 {
        fill: #fff;
      }

      .cls-2 {
        fill: #181f26;
      }

      .cls-3 {
        fill: url(#Degradado_sin_nombre_21);
      }

      .cls-4 {
        fill: #3730a3;
      }
    </style>
    <linearGradient id="Degradado_sin_nombre_21" data-name="Degradado sin nombre 21" x1="258.26" y1="119.93" x2="482.8" y2="-17.81" gradientUnits="userSpaceOnUse">
      <stop offset="0" stop-color="#000" stop-opacity=".7"/>
      <stop offset=".5" stop-color="#000" stop-opacity="0"/>
    </linearGradient>
  </defs>
  <g id="Capa_1-2" data-name="Capa 1">
    <g>
      <polygon class="cls-4" points="500 0 166.67 0 333.33 250 500 0"/>
      <polygon class="cls-4" points="166.67 0 0 250 166.67 500 500 500 166.67 0"/>
    </g>
    <polygon class="cls-3" points="500 0 166.67 0 333.33 250 500 0"/>
    <g>
      <path class="cls-2" d="M537.27,66.98h-9.75v-12.9h62.25c6.75,0,9.6,2.85,9.6,9.6v13.35h-13.65v-6.75c0-2.25-1.2-3.3-3.3-3.3h-30.15v33.15h37.05v12.9h-37.05v30.75c0,2.1,1.2,3.3,3.3,3.3h30.9c2.1,0,3.3-1.2,3.3-3.3v-6.75h13.8v13.35c0,6.75-2.85,9.6-9.6,9.6h-47.1c-6.75,0-9.6-2.85-9.6-9.6v-83.4Z"/>
      <path class="cls-2" d="M616.47,147.07h6.45c2.1,0,3.3-1.2,3.3-3.3V54.08h13.65l47.1,67.05c3.9,5.7,8.85,14.4,8.85,14.4h.3s-1.05-8.4-1.05-14.4v-57.45c0-6.75,2.85-9.6,9.75-9.6h15v12.9h-6.45c-2.1,0-3.3,1.05-3.3,3.3v89.7h-13.5l-47.25-67.05c-3.9-5.7-8.7-14.4-8.7-14.4h-.3s.9,8.55.9,14.4v57.45c0,6.75-2.85,9.6-9.6,9.6h-15.15v-12.9Z"/>
      <path class="cls-2" d="M738.12,70.28c-.9-2.7-2.4-3.3-4.95-3.3h-2.1v-12.9h8.4c7.5,0,10.05,1.65,12.45,8.7l23.25,65.25c1.95,5.7,4.05,14.55,4.05,14.55h.3s1.95-8.85,4.05-14.55l23.25-65.25c2.55-7.05,4.95-8.7,12.45-8.7h8.4v12.9h-2.1c-2.7,0-4.05.6-4.95,3.3l-33.3,89.7h-15.9l-33.3-89.7Z"/>
      <path class="cls-2" d="M839.52,147.07h10.35v-80.1h-10.35v-12.9h34.95v12.9h-10.35v80.1h10.35v12.9h-34.95v-12.9Z"/>
      <path class="cls-2" d="M943.92,52.28c30.6,0,54.45,23.55,54.45,54s-23.85,55.5-54.45,55.5-54.3-24.3-54.3-55.5,23.7-54,54.3-54ZM943.92,147.67c21.45,0,38.85-18,38.85-41.4s-17.4-40.05-38.85-40.05-38.7,17.4-38.7,40.05,17.25,41.4,38.7,41.4Z"/>
      <path class="cls-2" d="M1022.67,66.98h-9.75v-12.9h46.2c18.6,0,31.65,11.7,31.65,31.05,0,17.7-11.55,26.4-19.05,28.05v.3s2.7,1.35,4.5,4.8l12.75,25.35c1.5,3.15,3.9,3.45,7.5,3.45h1.95v12.9h-7.35c-8.25,0-11.25-1.05-14.7-7.95l-14.4-28.5c-2.7-4.95-4.65-5.7-10.5-5.7h-13.8v42.15h-15v-93ZM1057.17,104.93c11.4,0,18.15-7.35,18.15-19.2s-6.75-18.75-17.85-18.75h-19.8v37.95h19.5Z"/>
      <path class="cls-2" d="M1119.12,66.98h-9.75v-12.9h62.25c6.75,0,9.6,2.85,9.6,9.6v13.35h-13.65v-6.75c0-2.25-1.2-3.3-3.3-3.3h-30.15v33.15h37.05v12.9h-37.05v30.75c0,2.1,1.2,3.3,3.3,3.3h30.9c2.1,0,3.3-1.2,3.3-3.3v-6.75h13.8v13.35c0,6.75-2.85,9.6-9.6,9.6h-47.1c-6.75,0-9.6-2.85-9.6-9.6v-83.4Z"/>
      <path class="cls-2" d="M1195.62,147.07h5.1c2.1,0,3.15-1.2,3.3-3.3l7.2-89.7h15.45l24.9,56.1c2.55,5.7,5.25,13.35,5.25,13.35h.3s2.7-7.65,5.25-13.35l24.9-56.1h15.45l7.2,89.7c.15,2.1,1.2,3.3,3.3,3.3h4.95v12.9h-13.35c-6.75,0-9.15-2.85-9.6-9.6l-4.35-55.95c-.45-6.3-.3-15.6-.3-15.6h-.3s-3,9.9-5.55,15.6l-21.45,46.5h-12.6l-21.45-46.5c-2.55-5.55-5.7-15.75-5.7-15.75h-.3s.15,9.45-.3,15.75l-4.2,55.95c-.45,6.75-2.85,9.6-9.75,9.6h-13.35v-12.9Z"/>
      <path class="cls-2" d="M1362.57,66.98h-21.3c-2.1,0-3.3,1.05-3.3,3.3v6.75h-13.35v-13.95c0-6.75,2.25-9,9-9h72.9c6.75,0,9,2.25,9,9v13.95h-13.35v-6.75c0-2.25-1.2-3.3-3.3-3.3h-21.3v93h-15v-93Z"/>
      <path class="cls-2" d="M537.27,206.98h-9.75v-12.9h42.9c32.25,0,53.55,19.35,53.55,52.8s-21.3,53.1-53.55,53.1h-23.55c-6.75,0-9.6-2.85-9.6-9.6v-83.4ZM555.57,287.07h13.8c23.55,0,39-14.1,39-40.2s-15.6-39.9-39-39.9h-17.1v76.8c0,2.1,1.2,3.3,3.3,3.3Z"/>
      <path class="cls-2" d="M648.27,206.98h-9.75v-12.9h62.25c6.75,0,9.6,2.85,9.6,9.6v13.35h-13.65v-6.75c0-2.25-1.2-3.3-3.3-3.3h-30.15v33.15h37.05v12.9h-37.05v30.75c0,2.1,1.2,3.3,3.3,3.3h30.9c2.1,0,3.3-1.2,3.3-3.3v-6.75h13.8v13.35c0,6.75-2.85,9.6-9.6,9.6h-47.1c-6.75,0-9.6-2.85-9.6-9.6v-83.4Z"/>
      <path class="cls-2" d="M735.72,275.38s10.8,12.75,26.55,12.75c9.9,0,18.15-6,18.15-15.75,0-22.2-51.15-18.75-51.15-51.75,0-15.9,13.95-28.35,33.9-28.35,11.25,0,30.15,5.1,30.15,19.5v8.7h-13.8v-4.95c0-5.55-7.95-9.6-16.35-9.6-11.4,0-18.6,6.3-18.6,14.25,0,21.45,51,16.65,51,51.45,0,16.2-12.6,30.15-33.6,30.15-22.5,0-35.1-15.75-35.1-15.75l8.85-10.65Z"/>
      <path class="cls-2" d="M811.77,287.07h10.35v-80.1h-10.35v-12.9h34.95v12.9h-10.35v80.1h10.35v12.9h-34.95v-12.9Z"/>
      <path class="cls-2" d="M915.42,192.28c25.35,0,37.8,13.05,37.8,13.05l-8.55,10.95s-11.4-10.2-28.95-10.2c-21.15,0-38.1,16.95-38.1,40.5s16.95,41.1,38.4,41.1c18.9,0,30.15-13.2,30.15-13.2v-10.65c0-2.1-1.2-3.3-3.3-3.3h-6.45v-12.9h13.95c6.75,0,9.6,2.85,9.6,9.6v42.75h-13.2v-6.6c0-2.25.15-4.5.15-4.5h-.3s-11.85,12.9-33,12.9c-28.2,0-51.6-22.2-51.6-55.2,0-30.45,23.1-54.3,53.4-54.3Z"/>
      <path class="cls-2" d="M976.62,287.07h6.45c2.1,0,3.3-1.2,3.3-3.3v-89.7h13.65l47.1,67.05c3.9,5.7,8.85,14.4,8.85,14.4h.3s-1.05-8.4-1.05-14.4v-57.45c0-6.75,2.85-9.6,9.75-9.6h15v12.9h-6.45c-2.1,0-3.3,1.05-3.3,3.3v89.7h-13.5l-47.25-67.05c-3.9-5.7-8.7-14.4-8.7-14.4h-.3s.9,8.55.9,14.4v57.45c0,6.75-2.85,9.6-9.6,9.6h-15.15v-12.9Z"/>
      <path class="cls-2" d="M537.27,346.98h-9.75v-12.9h46.2c18.6,0,31.65,11.7,31.65,31.05,0,17.7-11.55,26.4-19.05,28.05v.3s2.7,1.35,4.5,4.8l12.75,25.35c1.5,3.15,3.9,3.45,7.5,3.45h1.95v12.9h-7.35c-8.25,0-11.25-1.05-14.7-7.95l-14.4-28.5c-2.7-4.95-4.65-5.7-10.5-5.7h-13.8v42.15h-15v-93ZM571.77,384.93c11.4,0,18.15-7.35,18.15-19.2s-6.75-18.75-17.85-18.75h-19.8v37.95h19.5Z"/>
      <path class="cls-2" d="M632.52,350.28c0-2.25-1.2-3.3-3.3-3.3h-6.45v-12.9h15.15c6.75,0,9.6,2.85,9.6,9.6v58.65c0,15.9,10.05,25.35,25.35,25.35s25.35-9.45,25.35-25.5v-58.5c0-6.75,3-9.6,9.75-9.6h15v12.9h-6.45c-2.1,0-3.3,1.05-3.3,3.3v52.65c0,23.1-16.05,38.85-40.2,38.85s-40.5-15.75-40.5-38.85v-52.65Z"/>
      <path class="cls-2" d="M746.67,350.28c0-2.25-1.2-3.3-3.3-3.3h-6.45v-12.9h15.15c6.75,0,9.6,2.85,9.6,9.6v80.1c0,2.1,1.2,3.3,3.3,3.3h29.25c2.1,0,3.3-1.2,3.3-3.3v-6.75h13.65v13.35c0,6.75-2.85,9.6-9.6,9.6h-45.3c-6.75,0-9.6-2.85-9.6-9.6v-80.1Z"/>
      <path class="cls-2" d="M827.22,346.98h-9.75v-12.9h62.25c6.75,0,9.6,2.85,9.6,9.6v13.35h-13.65v-6.75c0-2.25-1.2-3.3-3.3-3.3h-30.15v33.15h37.05v12.9h-37.05v30.75c0,2.1,1.2,3.3,3.3,3.3h30.9c2.1,0,3.3-1.2,3.3-3.3v-6.75h13.8v13.35c0,6.75-2.85,9.6-9.6,9.6h-47.1c-6.75,0-9.6-2.85-9.6-9.6v-83.4Z"/>
      <path class="cls-2" d="M914.67,415.38s10.8,12.75,26.55,12.75c9.9,0,18.15-6,18.15-15.75,0-22.2-51.15-18.75-51.15-51.75,0-15.9,13.95-28.35,33.9-28.35,11.25,0,30.15,5.1,30.15,19.5v8.7h-13.8v-4.95c0-5.55-7.95-9.6-16.35-9.6-11.4,0-18.6,6.3-18.6,14.25,0,21.45,51,16.65,51,51.45,0,16.2-12.6,30.15-33.6,30.15-22.5,0-35.1-15.75-35.1-15.75l8.85-10.65Z"/>
    </g>
    <g>
      <path class="cls-1" d="M86.14,237.27c3.11,3.72,7.01,9.52,9.71,13.65.74,1.13,2.06,2.83,2.28,4.14.47,2.77.25,8.72.3,11.85.23,14.08-.64,28.57-.12,42.6.09,2.41.17,4,2.95,4.25l162.15-.03c1.14-.19,1.95-.68,2.32-1.81l-.07-99.58c-.48-.66-1.05-1.37-1.87-1.56-44.43.23-89.02-.75-133.42.14-6.81.14-6.86-2.72-10.44-7.45-1.07-1.41-2.34-2.73-3.42-4.13-.17-.21-1.1-1.33-.92-1.48h147.61c9.06.53,14.57,5.23,15.46,14.43v119.1c-.49,6.58-4.06,12.03-10.59,13.81-.53.15-2.42.62-2.81.62h-64.47c.23,6.6,3.4,11.09,9.4,13.62,2.14.9,8.46,2.21,9.62,3.5,1.54,1.73,1.62,8.94-2.17,8.54h-71.02c-2.33-.22-2.85-1.43-3.05-3.59-.63-6.84,2.44-5.63,7.35-7.02,7.1-2.02,12.45-7.34,12.55-15.05h-64.7c-6.15,0-13.17-7.27-13.17-13.4v-95.62c.25.03.4.3.55.48ZM180.35,336.83c9.8,2.31,12.36-12.72,3.09-14.08-9.58-1.4-11.55,12.09-3.09,14.08Z"/>
      <path class="cls-1" d="M159.89,249.29c-4.26-.03-9.2.08-13.22-1.55-.66-.27-1.89-.8-2.36-1.31-.97-1.05-1.85-5.59-2.39-7.23-1.84-5.6-4-10.45-7.1-15.46h96.31c.08,0,1.09.47,1.25.58.92.64,1.08,1.9,1.16,2.96.38,4.89.39,13.45-.01,18.33-.18,2.26-.78,3.58-3.31,3.56-23.44-.29-46.91.3-70.34.11Z"/>
      <path class="cls-1" d="M109.63,253.86c-.73-.66-2.49-2.27-2.98-2.98-.13-.19-.32-.23-.23-.57,7.64-1.9,14.93-6.14,20.27-11.91,1.17-1.26,2.33-3.24,3.45-4.34.19-.19.2-.33.55-.24,3.43,6.38,5.32,13.3,5.04,20.61,8.69.18,16.66,3.11,20.74,11.21,4.73,9.39-1.73,19.09,5.59,26.47,1.49,1.5,6.77,4,2.19,6.07-10.38,4.68-21.54,2.28-30.23-4.6-8.8-6.96-16.1-19.72-9.77-30.61l-.07-.31c-5.34-2.04-10.32-4.97-14.57-8.81Z"/>
      <path class="cls-1" d="M75.16,179.54c3.73-2.8,10.2,1.47,13.38,3.8,11.7,8.56,24.75,25.16,33.32,36.99.63.86,3.67,4.79,3.77,5.41.12.73-1.72,2.93-2.26,3.61-1.18,1.46-2.81,3.12-4.21,4.38-3.36,3.02-7.66,5.77-11.82,7.54-1.99.84-5.88,2.74-7.55.92-9.36-14.99-19.58-30.13-25.03-47.12-1.4-4.36-4.03-12.19.4-15.52Z"/>
      <path class="cls-1" d="M201.47,259.81c.22-3.13,1.14-3.74,4.24-4.01,7.78.56,16.56-.74,24.22.08,2.28.24,3.37.82,3.61,3.26v38.26c-.17,2.13-.87,3.13-3.08,3.32-8.36-.57-17.65.73-25.9,0-2.67-.23-2.82-1.68-3.09-4.01.66-12.03-.85-24.96,0-36.89Z"/>
      <path class="cls-1" d="M163.81,261.29l-3.34-5.48h31.95c.09,0,1.61.3,1.71.35,1.16.49.7,4.32.48,5.46-.62.49-1.43.56-2.19.62-5.98.42-13.39.1-19.49,0-2.72-.04-5.42-.3-8.18-.29l-.95-.65Z"/>
      <path class="cls-1" d="M194.03,268.86c1.13,0,.91,4.25.75,5.11-.16.85-1.11,1.02-1.88,1.09h-25.55s-.69-6.2-.69-6.2h27.37Z"/>
      <path class="cls-1" d="M167.12,281.69h26.91c.15,0,.74.74.8,1.04.11.57.11,3.54,0,4.11-.16.84-.99.98-1.7,1.05-6.95.62-14.89-.44-21.94-.07-2.97-.63-4.49-3.18-4.06-6.13Z"/>
      <path class="cls-1" d="M192.44,294.5c1.83.13,2.65.33,2.64,2.42,0,.52-.16,2.26-.25,2.74-.06.3-.58.98-.8,1.03h-20.27l.92-6.19c5.79.32,12.02-.42,17.76,0Z"/>
    </g>
  </g>
</svg>