<svg width="20" height="24" viewBox="0 0 20 24" fill="none" xmlns="http://www.w3.org/2000/svg">
<g clip-path="url(#clip0_89_2)">
<path d="M3.80098 18.5661C1.32323 24.0572 6.59921 25.434 10.4906 22.2205C11.6341 25.8242 15.9262 23.1361 17.4654 20.3445C20.858 14.1915 19.4879 7.91459 19.1363 6.61988C16.7246 -2.20972 4.67072 -2.21852 2.59598 6.6649C2.11153 8.21946 2.10301 9.98752 1.82863 11.8233C1.69028 12.749 1.59275 13.3398 1.23453 14.3135C1.02858 14.8733 0.745218 15.3704 0.300007 16.2082C-0.39142 17.5095 -0.0997057 20.021 3.46414 18.7186L3.80098 18.5661Z" fill="white"/>
<path d="M10.9614 10.4413C9.97202 10.4413 9.82422 9.25893 9.82422 8.55407C9.82422 7.91791 9.93824 7.4124 10.1542 7.09197C10.3441 6.81003 10.6158 6.66699 10.9614 6.66699C11.3071 6.66699 11.6036 6.81228 11.8128 7.09892C12.0511 7.42554 12.177 7.92861 12.177 8.55407C12.177 9.73591 11.7224 10.4413 10.9614 10.4413Z" fill="black"/>
<path d="M15.0318 10.4413C14.0423 10.4413 13.8945 9.25893 13.8945 8.55407C13.8945 7.91791 14.0086 7.4124 14.2245 7.09197C14.4144 6.81003 14.6861 6.66699 15.0318 6.66699C15.3774 6.66699 15.6739 6.81228 15.8831 7.09892C16.1214 7.42554 16.2474 7.92861 16.2474 8.55407C16.2474 9.73591 15.7929 10.4413 15.0318 10.4413Z" fill="black"/>
</g>
<defs>
<clipPath id="clip0_89_2">
<rect width="20" height="24" fill="white"/>
</clipPath>
</defs>
</svg>
