<?xml version="1.0" encoding="UTF-8"?>
<svg id="Capa_2" data-name="Capa 2" xmlns="http://www.w3.org/2000/svg" xmlns:xlink="http://www.w3.org/1999/xlink" viewBox="0 0 48 48">
  <defs>
    <style>
      .cls-1 {
        fill: #fff;
      }

      .cls-2 {
        fill: url(#Degradado_sin_nombre_21);
      }

      .cls-3 {
        fill: #3730a3;
      }
    </style>
    <linearGradient id="Degradado_sin_nombre_21" data-name="Degradado sin nombre 21" x1="24.79" y1="11.51" x2="46.35" y2="-1.71" gradientUnits="userSpaceOnUse">
      <stop offset="0" stop-color="#000" stop-opacity=".7"/>
      <stop offset=".5" stop-color="#000" stop-opacity="0"/>
    </linearGradient>
  </defs>
  <g id="Capa_1-2" data-name="Capa 1">
    <g>
      <polygon class="cls-3" points="48 0 16 0 32 24 48 0"/>
      <g>
        <polygon class="cls-3" points="32 24 16 48 48 48 32 24"/>
        <polygon class="cls-3" points="16 0 0 24 16 48 32 24 16 0"/>
      </g>
    </g>
    <polygon class="cls-2" points="48 0 16 0 32 24 48 0"/>
    <g>
      <path class="cls-1" d="M8.27,22.78c.3.36.67.91.93,1.31.07.11.2.27.22.4.04.27.02.84.03,1.14.02,1.35-.06,2.74-.01,4.09,0,.23.02.38.28.41h15.57c.11-.02.19-.07.22-.18v-9.56c-.05-.06-.11-.13-.19-.15-4.27.02-8.55-.07-12.81.01-.65.01-.66-.26-1-.71-.1-.14-.22-.26-.33-.4-.02-.02-.11-.13-.09-.14h14.17c.87.05,1.4.5,1.48,1.39v11.43c-.05.63-.39,1.15-1.02,1.33-.05.01-.23.06-.27.06h-6.19c.02.63.33,1.06.9,1.31.21.09.81.21.92.34.15.17.16.86-.21.82h-6.82c-.22-.02-.27-.14-.29-.34-.06-.66.23-.54.71-.67.68-.19,1.19-.7,1.2-1.44h-6.21c-.59,0-1.26-.7-1.26-1.29v-9.18s.04.03.05.05ZM17.31,32.34c.94.22,1.19-1.22.3-1.35-.92-.13-1.11,1.16-.3,1.35Z"/>
      <path class="cls-1" d="M15.35,23.93c-.41,0-.88,0-1.27-.15-.06-.03-.18-.08-.23-.13-.09-.1-.18-.54-.23-.69-.18-.54-.38-1-.68-1.48h9.25s.1.05.12.06c.09.06.1.18.11.28.04.47.04,1.29,0,1.76-.02.22-.08.34-.32.34-2.25-.03-4.5.03-6.75.01Z"/>
      <path class="cls-1" d="M10.52,24.37c-.07-.06-.24-.22-.29-.29-.01-.02-.03-.02-.02-.06.73-.18,1.43-.59,1.95-1.14.11-.12.22-.31.33-.42.02-.02.02-.03.05-.02.33.61.51,1.28.48,1.98.83.02,1.6.3,1.99,1.08.45.9-.17,1.83.54,2.54.14.14.65.38.21.58-1,.45-2.07.22-2.9-.44-.85-.67-1.55-1.89-.94-2.94v-.03c-.52-.2-1-.48-1.4-.85Z"/>
      <path class="cls-1" d="M7.22,17.24c.36-.27.98.14,1.28.36,1.12.82,2.38,2.42,3.2,3.55.06.08.35.46.36.52.01.07-.16.28-.22.35-.11.14-.27.3-.4.42-.32.29-.73.55-1.13.72-.19.08-.56.26-.73.09-.9-1.44-1.88-2.89-2.4-4.52-.13-.42-.39-1.17.04-1.49Z"/>
      <path class="cls-1" d="M19.34,24.94c.02-.3.11-.36.41-.38.75.05,1.59-.07,2.33,0,.22.02.32.08.35.31v3.67c-.02.2-.08.3-.3.32-.8-.05-1.69.07-2.49,0-.26-.02-.27-.16-.3-.38.06-1.16-.08-2.4,0-3.54Z"/>
      <path class="cls-1" d="M15.73,25.08l-.32-.53h3.07s.15.03.16.03c.11.05.07.41.05.52-.06.05-.14.05-.21.06-.57.04-1.29,0-1.87,0-.26,0-.52-.03-.79-.03l-.09-.06Z"/>
      <path class="cls-1" d="M18.63,25.81c.11,0,.09.41.07.49-.02.08-.11.1-.18.1h-2.45s-.07-.59-.07-.59h2.63Z"/>
      <path class="cls-1" d="M16.04,27.04h2.58s.07.07.08.1c.01.06.01.34,0,.39-.02.08-.1.09-.16.1-.67.06-1.43-.04-2.11,0-.29-.06-.43-.31-.39-.59Z"/>
      <path class="cls-1" d="M18.47,28.27c.18.01.25.03.25.23,0,.05-.02.22-.02.26,0,.03-.06.09-.08.1h-1.95l.09-.59c.56.03,1.15-.04,1.71,0Z"/>
    </g>
  </g>
</svg>